<?xml version="1.0" encoding="UTF-8"?>
<svg id="Layer_1" xmlns="http://www.w3.org/2000/svg" version="1.1" viewBox="0 0 256 280">
  <!-- Generator: Adobe Illustrator 29.4.0, SVG Export Plug-In . SVG Version: 2.1.0 Build 152)  -->
  <defs>
    <style>
      .st0 {
        fill: #fff;
      }

      .st1 {
        fill: #f47925;
      }
    </style>
  </defs>
  <path class="st1" d="M124.7,4.5l6.9.4,110.7,47.9c4,2.1,6.4,5.1,6.9,9.8v145.9c-.3,3.9-1.7,6.9-5,9.1l-107.7,53.9c-2.2,1.3-4.9,1.1-7.3.8L14.1,218.1c-3.4-1.4-5.9-4.1-6.1-7.9V63.8c.5-6.3,5.1-7.8,9.9-10.2C52.7,36,89.7,21.5,124.7,4.5h0Z"/>
  <g>
    <path class="st0" d="M80.5,143c15.4-.3,20.1,5.4,20.1,5.4l28.1-65.2H42.8v19.5h54.8l-17.2,40.2h.1Z"/>
    <path class="st0" d="M113.7,135.3l-8.2,18.8c1.9,3.1,3,6.8,3,10.7,0,11.8-10.1,21.2-22.7,21.2s-22.7-9.5-22.7-21.2l-20.4.4c0,21.5,19.3,39.1,43.3,39.1s43.3-17.4,43.3-39.1-5.9-22.7-15.4-29.9h0Z"/>
  </g>
  <polygon class="st0" points="219.8 102.9 219.8 82.6 138.4 82.6 138.4 197.1 162.3 197.1 162.3 148.8 212.6 148.8 212.6 128.7 162.3 128.7 162.3 102.9 219.8 102.9"/>
</svg>